<?xml version="1.0" standalone="no"?>
<!DOCTYPE svg PUBLIC "-//W3C//DTD SVG 20010904//EN"
 "http://www.w3.org/TR/2001/REC-SVG-20010904/DTD/svg10.dtd">
<svg version="1.0" xmlns="http://www.w3.org/2000/svg"
 width="500.000000pt" height="300.000000pt" viewBox="0 0 500.000000 300.000000"
 preserveAspectRatio="xMidYMid meet">

<g transform="translate(0.000000,300.000000) scale(0.100000,-0.100000)"
fill="#000000" stroke="none">
<path d="M1020 2447 c-94 -50 -106 -162 -24 -226 23 -18 41 -21 115 -21 49 0
89 -4 89 -9 0 -6 -29 -87 -65 -183 -36 -95 -65 -173 -65 -174 0 -1 -39 -4 -87
-6 -101 -5 -144 -23 -173 -71 -36 -58 -20 -143 34 -177 11 -8 44 -19 73 -25
l51 -10 -83 -232 c-95 -263 -111 -298 -163 -355 -49 -54 -102 -78 -177 -78
-104 0 -176 61 -168 143 10 106 -108 196 -217 167 -90 -24 -135 -101 -128
-217 10 -169 147 -321 343 -379 81 -24 239 -24 320 0 147 44 265 141 345 282
28 50 85 193 150 376 l105 295 100 5 c155 8 214 44 223 136 9 96 -40 142 -153
142 -36 0 -65 3 -65 7 0 10 111 326 121 346 9 16 34 17 297 17 279 0 289 1
332 23 77 38 102 130 52 196 -38 51 -30 51 -603 51 l-536 0 -43 -23z"/>
<path d="M1785 1596 c-88 -28 -142 -71 -169 -138 -22 -51 -23 -372 -2 -422 36
-86 128 -144 242 -154 121 -9 231 40 282 127 27 46 27 47 27 236 0 188 0 190
-27 236 -62 105 -221 157 -353 115z m161 -141 c52 -22 64 -60 64 -210 0 -152
-11 -188 -67 -211 -57 -24 -120 -14 -155 25 l-28 31 0 154 c0 141 2 155 21
180 37 47 99 59 165 31z"/>
<path d="M3845 1592 c-101 -33 -164 -128 -149 -222 15 -93 80 -142 249 -191
61 -17 118 -38 128 -47 24 -22 21 -59 -8 -87 -19 -20 -34 -25 -77 -25 -72 0
-120 25 -134 70 l-12 35 -72 3 c-40 2 -77 -1 -83 -7 -16 -16 11 -104 44 -144
16 -20 55 -48 87 -64 51 -25 68 -28 157 -28 90 0 106 3 158 28 77 38 110 87
115 171 3 50 0 71 -17 105 -28 53 -61 73 -192 115 -123 39 -164 59 -173 81
-20 54 16 87 94 87 56 0 95 -20 112 -58 10 -22 16 -24 85 -24 l73 0 0 39 c0
131 -212 221 -385 163z"/>
<path d="M4541 1591 c-66 -23 -98 -46 -136 -100 l-30 -43 -3 -181 c-2 -109 1
-196 7 -217 16 -54 73 -114 133 -140 148 -64 327 -19 396 99 27 46 27 47 27
236 0 188 0 190 -27 236 -65 110 -226 158 -367 110z m175 -136 c52 -22 64 -60
64 -210 0 -152 -11 -188 -67 -211 -57 -24 -120 -14 -155 25 l-28 31 0 154 c0
141 2 155 21 180 37 47 99 59 165 31z"/>
<path d="M2332 1592 c-9 -7 -12 -84 -10 -353 l3 -344 63 -3 c38 -2 69 2 78 9
10 8 14 38 14 115 l0 104 34 37 33 37 87 -146 c60 -102 93 -148 109 -152 12
-3 50 -6 85 -6 46 0 64 4 68 15 4 8 -43 94 -110 205 -64 105 -116 193 -116
196 0 3 56 67 125 141 69 74 122 139 119 144 -3 5 -44 9 -92 9 l-86 0 -80 -87
c-45 -48 -102 -110 -128 -138 l-48 -50 0 126 c0 84 -4 129 -12 137 -13 13
-116 16 -136 4z"/>
<path d="M3020 1586 c-8 -11 -11 -84 -8 -278 3 -296 4 -297 80 -362 87 -74
241 -87 354 -30 73 36 111 83 124 153 13 71 13 486 0 512 -9 16 -22 19 -75 19
-53 0 -66 -3 -75 -19 -6 -12 -10 -112 -10 -256 0 -150 -4 -244 -11 -257 -25
-46 -122 -62 -176 -28 -47 28 -53 65 -53 321 0 256 6 239 -85 239 -34 0 -57
-5 -65 -14z"/>
</g>
</svg>
